<?xml version="1.0" encoding="UTF-8"?>
<svg id="Vrstva_1" data-name="Vrstva 1" xmlns="http://www.w3.org/2000/svg" viewBox="0 0 2160 2160">
  <defs>
    <style>
      .cls-1 {
        fill: #ff8daa;
      }

      .cls-2 {
        fill: #fce67d;
      }

      .cls-3 {
        fill: #049fe8;
      }
    </style>
  </defs>
  <g>
    <path class="cls-3" d="M673.43,1162.81l487.73-536.65c-6.54-79.14-28.79-148.76-66.82-208.79-45.94-72.5-109.75-128.72-191.41-168.69-81.68-39.95-176.33-59.95-283.98-59.95H158.18v975.91h460.78c18.55,0,36.7-.64,54.48-1.82ZM433.8,944.35V409h174.01c55.68,0,104.17,10.46,145.47,31.37,41.29,20.91,73.54,51.37,96.75,91.32,23.19,39.97,34.8,88.31,34.8,144.99s-11.62,103.86-34.8,144.3c-23.21,40.43-55.46,71.1-96.75,92.01-41.31,20.91-89.79,31.37-145.47,31.37h-174.01Z"/>
    <g id="ZgxFBL">
      <polygon class="cls-2" points="1437.12 353.63 707.35 1158.94 1021.77 1154.04 687.52 1792.66 1465 983.72 1113.45 983.72 1437.12 353.63"/>
    </g>
  </g>
  <path class="cls-1" d="M1959.36,1554.4c-28.32-39.49-67.99-69.71-119.02-90.62-5.8-2.38-11.76-4.58-17.79-6.69,38.68-20.7,69.46-47.29,92.27-79.75,26.45-37.64,39.68-81.56,39.68-131.75,0-76.2-31.57-137.78-94.66-184.73-63.12-46.92-158.69-70.41-286.77-70.41h-87.61l-410.75,434.4v541.5h526.2c130.86,0,230.39-23.46,298.6-70.41,68.21-46.92,102.32-112.69,102.32-197.27,0-56.68-14.16-104.78-42.46-144.3ZM1536.87,1189.83c46.39,0,81.19,7.67,104.41,23,23.18,15.34,34.8,38.82,34.8,70.41s-11.62,55.31-34.8,71.1c-23.21,15.81-58.01,23.7-104.41,23.7h-189.32v-188.21h189.32ZM1686.52,1742.62c-24.61,16.27-60.56,24.4-107.89,24.4h-231.09v-197.97h231.09c47.33,0,83.28,8.15,107.89,24.4,24.58,16.27,36.89,41.13,36.89,74.59s-12.31,58.34-36.89,74.59Z"/>
</svg>