<?xml version="1.0" encoding="utf-8"?>
<!-- Uploaded to SVGRepo https://www.svgrepo.com -->
<!-- License: CC0. Made by SVG Repo: https://www.svgrepo.com/svg/308424/beer-garden-brewery-beer-bar -->
<svg width="100%" height="100%" style="display:block;" fill="#fff" version="1.1" id="Layer_1" xmlns="http://www.w3.org/2000/svg" xmlns:xlink="http://www.w3.org/1999/xlink" x="0px" y="0px"
	   viewBox="0 0 256 256" enable-background="new 0 0 256 253" xml:space="preserve"><g transform="translate(0,1.5) scale(1)">
<path d="M172.907,172.02v18.999c0,10.475-8.524,18.999-18.999,18.999h-1.727v6.909c0,3.817-3.092,6.909-6.909,6.909H96.91
	c-3.817,0-6.909-3.092-6.909-6.909v-64.796c-4.115-2.289-6.909-6.68-6.909-11.71c0-6.917,5.272-12.626,12.008-13.317
	c2.289-8.027,9.741-13.809,18.291-13.809c5.324,0,10.363,2.232,13.934,6.075c1.93-0.851,4.029-1.295,6.179-1.295
	c7.375,0,13.662,5.398,15.04,12.466c4.987,1.421,8.606,6.024,8.606,11.417c0,3.973-1.965,7.496-4.97,9.651v10.048h10.363
	C168.257,161.657,172.907,166.308,172.907,172.02z M107.274,168.566h-6.909v34.544h6.909V168.566z M124.546,168.566h-6.909v34.544
	h6.909V168.566z M141.818,168.566h-6.909v34.544h6.909V168.566z M151.106,141.958c0-3.083-2.409-5.639-5.48-5.816l-2.776-0.16
	l-0.073-2.776c-0.134-5.009-4.292-9.085-9.271-9.085c-1.883,0-3.692,0.557-5.229,1.615l-2.487,1.71l-1.71-2.487
	c-2.427-3.519-6.421-5.618-10.687-5.618c-6.43,0-11.948,4.789-12.842,11.136l-0.367,2.604h-3.705c-4.046,0-7.341,3.295-7.341,7.341
	s3.295,7.418,7.341,7.418h7.341v6.909c0,3.817,3.092,6.909,6.909,6.909c3.817,0,6.909-3.092,6.909-6.909v-6.909h27.635
	C148.485,147.839,151.106,145.171,151.106,141.958z M165.998,172.02c0-1.904-1.55-3.454-3.454-3.454h-10.363v34.544h1.727
	c6.667,0,12.09-5.423,12.09-12.09V172.02z M2,69c0,13.678,9.625,25.302,22,29.576V233H2v18h252v-18h-22V98.554
	c12.89-3.945,21.699-15.396,22-29.554v-8H2V69z M65.29,68.346c0,6.477,6.755,31.47,31.727,31.47
	c21.689,0,31.202-19.615,31.202-31.47c0,11.052,7.41,31.447,31.464,31.447c21.733,0,31.363-20.999,31.363-31.447
	c0,14.425,9.726,26.416,22.954,30.154V233H42V98.594C55.402,94.966,65.29,82.895,65.29,68.346z M222.832,22H223V2H34v20L2,54h252
	L222.832,22z"/>
</g></svg>
